<svg width="269" height="320" viewBox="0 0 269 320" fill="none" xmlns="http://www.w3.org/2000/svg">
//<rect width="269" height="320" fill="none"/>
<path d="M115.709 128.082C115.709 137.999 123.746 146.035 133.663 146.035C143.579 146.035 151.616 137.999 151.616 128.082C151.616 118.165 143.579 110.129 133.663 110.129C123.746 110.129 115.709 118.165 115.709 128.082Z" fill="#333456"/>
<mask id="mask0_0_1" style="mask-type:luminance" maskUnits="userSpaceOnUse" x="50" y="50" width="167" height="90">
<path d="M50.3292 50.0404H216.996V139.051H50.3292V50.0404Z" fill="white"/>
</mask>
<g mask="url(#mask0_0_1)">
<path d="M133.663 60.6914C89.6834 60.6914 53.7198 94.9727 51.0271 138.275C50.9178 136.54 50.8553 134.796 50.8553 133.035C50.8553 87.3008 87.9282 50.2331 133.663 50.2331C179.392 50.2331 216.465 87.3008 216.465 133.035C216.465 134.796 216.407 136.54 216.298 138.275C213.605 94.9727 177.642 60.6914 133.663 60.6914Z" fill="#333456"/>
</g>
<path d="M93.574 105.676L133.663 85.056L173.751 105.676L153.189 108.379V125.775H114.136V108.379L109.261 107.738V118.613C109.261 119.436 108.59 120.108 107.767 120.108C106.939 120.108 106.272 119.436 106.272 118.613V107.342L93.574 105.676Z" fill="#333456"/>
<mask id="mask1_0_1" style="mask-type:luminance" maskUnits="userSpaceOnUse" x="120" y="76" width="114" height="170">
<path d="M120.996 76.3841H233.663V245.04H120.996V76.3841Z" fill="white"/>
</mask>
<g mask="url(#mask1_0_1)">
<path d="M121.636 222.301C121.663 219.858 121.756 218.145 121.824 217.447C123.866 195.254 132.032 173.994 145.397 155.978C154.907 143.155 182.61 119.676 192.35 91.9518C190.465 113.613 177.871 134.462 162.788 155.978C147.433 177.884 164.61 217.717 164.61 217.717C199.897 205.03 225.131 171.27 225.131 131.613C225.131 111.415 218.579 92.7539 207.496 77.6185C223.746 95.3998 233.663 119.077 233.663 145.061C233.663 192.004 201.319 231.389 157.704 242.155C150.001 244.056 141.949 245.061 133.663 245.061C130.209 245.061 126.803 244.884 123.444 244.546C121.866 235.592 121.59 227.374 121.636 222.301Z" fill="#333456"/>
</g>
<mask id="mask2_0_1" style="mask-type:luminance" maskUnits="userSpaceOnUse" x="33" y="76" width="98" height="169">
<path d="M33.6625 76.3841H130.329V244.384H33.6625V76.3841Z" fill="white"/>
</mask>
<g mask="url(#mask2_0_1)">
<path d="M114.407 222.233C114.433 219.624 114.538 217.691 114.631 216.754C116.215 199.504 121.303 182.764 129.522 167.514C127.215 163.546 124.683 159.691 121.928 155.978C112.418 143.155 84.7146 119.681 74.975 91.9518C76.8605 113.613 89.4542 134.462 104.532 155.978C119.892 177.889 102.715 217.717 102.715 217.717C67.4282 205.03 42.1938 171.27 42.1938 131.619C42.1938 111.415 48.7459 92.7539 59.8292 77.6185C43.5792 95.3998 33.6625 119.077 33.6625 145.066C33.6625 192.004 66.0063 231.389 109.621 242.155C111.704 242.665 113.808 243.113 115.944 243.494C114.532 234.405 114.371 226.384 114.407 222.233Z" fill="#C59035"/>
</g>
<path d="M17.6234 97.2141C17.2067 98.287 16.6755 99.2714 16.0401 100.172C15.4151 101.079 14.8317 101.766 14.2901 102.235L9.60256 100.381L9.70673 100.152C11.4724 100.251 13.0296 99.9797 14.3734 99.3391C15.7171 98.6881 16.6286 97.7558 17.1026 96.5474C17.488 95.5891 17.5192 94.7245 17.1859 93.9433C16.8526 93.1672 16.2692 92.6204 15.4359 92.2974C14.5453 91.9537 13.7432 92.0214 13.0192 92.5058C12.2849 92.9797 11.4671 93.7766 10.5609 94.9016C9.74319 95.9329 8.9984 96.7349 8.33173 97.3183C7.65465 97.9016 6.89423 98.2922 6.0609 98.4849C5.22756 98.6672 4.27965 98.5474 3.20673 98.1308C2.29006 97.7714 1.55569 97.2037 0.998397 96.4224C0.430689 95.6308 0.102564 94.7089 0.0192308 93.6516C-0.0641026 92.5995 0.123397 91.4849 0.581731 90.3183C0.930689 89.4172 1.38381 88.5631 1.9359 87.7558C2.47756 86.9537 2.97756 86.3287 3.4359 85.8808L7.8109 87.5891L7.72756 87.8183C6.03486 87.7922 4.61298 88.0422 3.45673 88.5683C2.29006 89.0839 1.48798 89.9016 1.04006 91.0266C0.706731 91.8756 0.680689 92.6829 0.956731 93.4433C1.22236 94.1933 1.75881 94.7245 2.5609 95.0266C3.38381 95.3599 4.15465 95.2766 4.8734 94.7766C5.59736 94.2662 6.47236 93.3912 7.4984 92.1516C8.29006 91.1829 9.00881 90.4172 9.64423 89.8599C10.2849 89.3079 11.0401 88.9329 11.9151 88.7349C12.7901 88.5266 13.7849 88.6464 14.8942 89.0891C15.8942 89.4797 16.6859 90.0683 17.2692 90.8599C17.863 91.6412 18.1911 92.5839 18.2484 93.6933C18.3161 94.7922 18.1078 95.9641 17.6234 97.2141Z" fill="#333456"/>
<path d="M23.7517 82.8762C23.3455 81.9752 22.5694 81.1887 21.4184 80.5221L9.43921 73.6679L8.98088 74.4804C8.32983 75.621 8.12671 76.7617 8.37671 77.8971C8.61629 79.0377 9.184 80.2304 10.085 81.4804L9.96004 81.7096L5.87671 78.6471L13.7517 64.8762L18.46 66.8762L18.335 67.0846C16.809 66.9179 15.4913 67.0221 14.3767 67.3971C13.2673 67.7721 12.3871 68.5325 11.7309 69.6679L11.2725 70.4804L23.2517 77.3346C24.4028 78.0012 25.4705 78.2825 26.46 78.1679L26.5642 78.2304L23.8559 82.9387L23.7517 82.8762Z" fill="#333456"/>
<path d="M36.682 64.3657C35.2914 66.1052 33.7966 67.1313 32.2029 67.449C30.6039 67.7563 29.0727 67.3188 27.5987 66.1365L20.7654 60.6365C19.7237 59.8032 18.7133 59.3761 17.7237 59.3448L17.6404 59.2615L21.0362 55.0115L21.1195 55.0948C21.3852 56.0427 22.0362 56.9282 23.0779 57.7615L29.9112 63.2615C31.1195 64.2354 32.307 64.6677 33.4737 64.5532C34.6404 64.4438 35.6664 63.8396 36.557 62.7407C37.4425 61.6313 37.8175 60.4907 37.682 59.324C37.5414 58.1573 36.8695 57.0896 35.6612 56.1157L28.8279 50.6157C28.3695 50.2563 27.8695 50.0115 27.3279 49.8865C26.7862 49.7511 26.1716 49.6938 25.4737 49.7198L25.3695 49.6365L27.5779 46.9073L27.682 46.9907C27.807 47.6573 27.9945 48.2407 28.2445 48.7407C28.4841 49.2407 28.8279 49.6729 29.2862 50.0323L36.1195 55.5323C37.6039 56.7302 38.3956 58.0896 38.4945 59.6157C38.6039 61.1469 37.9998 62.7302 36.682 64.3657Z" fill="#333456"/>
<path d="M44.5019 54.5743C44.4289 53.5899 43.9498 52.5951 43.0644 51.5951L35.6894 43.3034C34.8039 42.3034 33.8664 41.7097 32.8769 41.5118L32.7935 41.4076L38.2935 36.5326C39.5591 35.4076 40.9133 34.6107 42.356 34.1368C43.7831 33.6524 45.2571 33.6159 46.7727 34.0326C48.2831 34.4493 49.7362 35.4388 51.1269 36.9909C52.5123 38.5638 53.3248 40.1263 53.5644 41.6784C53.7987 43.2357 53.5904 44.694 52.9394 46.0534C52.2987 47.418 51.3456 48.6576 50.0852 49.7826L44.5852 54.6576L44.5019 54.5743ZM49.2935 49.5951C50.1946 48.793 50.7571 47.8555 50.981 46.7826C51.2154 45.6993 51.0956 44.543 50.6269 43.3034C50.1529 42.069 49.356 40.819 48.231 39.5534C47.106 38.293 45.9602 37.3607 44.7935 36.7618C43.6269 36.1524 42.4966 35.8972 41.3977 35.9909C40.2883 36.0899 39.2831 36.543 38.3769 37.3451C37.8248 37.8347 37.33 38.444 36.8977 39.1784L47.3144 50.8659C48.0748 50.5065 48.7362 50.0847 49.2935 49.5951Z" fill="#333456"/>
<path d="M60.9403 40.7223C61.008 39.7379 60.6799 38.6806 59.9611 37.5556L54.0028 28.2015C53.284 27.0765 52.4559 26.3421 51.5236 25.9931L51.4611 25.889L61.9403 19.2015L65.0861 22.9098L64.857 23.0556C63.607 22.2119 62.409 21.7327 61.2736 21.6181C60.1486 21.4931 58.8934 21.8786 57.5028 22.764L55.6278 23.9515L59.857 30.5765L61.7528 29.3681C62.5705 28.8577 63.0913 28.2588 63.3153 27.5765C63.534 26.8838 63.508 26.1129 63.232 25.264L63.4403 25.139L66.6486 30.1598L66.4403 30.2848C65.784 29.6911 65.107 29.3473 64.3986 29.264C63.6903 29.1806 62.9247 29.3994 62.107 29.9098L60.2111 31.1181L64.5028 37.8473L66.857 36.3473C68.2424 35.4723 69.1174 34.5088 69.482 33.4515C69.857 32.3838 69.9195 31.0869 69.6695 29.5556L69.8778 29.4098L71.9611 33.8473L61.0028 40.8265L60.9403 40.7223Z" fill="#333456"/>
<path d="M76.1375 31.3513C76.3302 30.7003 76.4344 30.0961 76.45 29.5388C76.4604 28.9711 76.351 28.4138 76.1167 27.8722L71.6583 17.6847C71.424 17.143 71.0958 16.6951 70.6792 16.3305C70.2625 15.9555 69.7521 15.6326 69.1375 15.3513L69.0958 15.2263L73.2208 13.4138L86.575 20.9347L82.9917 12.7472C82.7521 12.2211 82.4187 11.7784 81.9917 11.4138C81.575 11.0388 81.075 10.7055 80.4917 10.4138L80.4292 10.268L83.6167 8.87216L83.6792 9.018C83.4708 9.65862 83.3562 10.2628 83.3458 10.8305C83.3458 11.3878 83.4604 11.9295 83.7 12.4555L89.4708 25.6638L88.6167 26.0388L72.1167 16.8722L76.8042 27.5805C77.0385 28.1222 77.3667 28.5805 77.7833 28.9555C78.2 29.3201 78.7208 29.643 79.3458 29.9347L79.4083 30.0597L76.2 31.4763L76.1375 31.3513Z" fill="#333456"/>
<path d="M99.3531 22.4296C99.7385 21.5129 99.7698 20.4088 99.4364 19.1171L95.9573 5.76294L95.0406 5.99211C93.7802 6.32544 92.8218 6.98169 92.1656 7.95044C91.5145 8.90877 91.0718 10.1588 90.8323 11.7004L90.5614 11.7629L89.9156 6.67961L105.27 2.70044L107.124 7.47127L106.874 7.53377C105.926 6.31502 104.936 5.44002 103.895 4.90877C102.853 4.36711 101.692 4.26294 100.416 4.59627L99.4989 4.82544L102.978 18.1796C103.311 19.4713 103.858 20.4296 104.624 21.0546L104.666 21.1796L99.3948 22.5546L99.3531 22.4296Z" fill="#333456"/>
<path d="M123.168 17.9792C123.736 17.1771 124.002 16.1042 123.96 14.7708L123.606 3.66667C123.564 2.33333 123.236 1.28125 122.627 0.5L122.606 0.375L135.043 0L135.856 4.8125H135.585C134.929 3.42708 134.147 2.39583 133.231 1.72917C132.325 1.05208 131.054 0.739584 129.418 0.791667L127.189 0.854167L127.439 8.70833L129.689 8.64583C130.658 8.61979 131.408 8.36979 131.939 7.89583C132.481 7.41146 132.856 6.73958 133.064 5.875H133.314L133.502 11.8333H133.252C132.986 10.974 132.569 10.3281 132.002 9.89583C131.444 9.46875 130.679 9.26563 129.71 9.29167L127.46 9.35417L127.71 17.3333L130.502 17.25C132.137 17.2083 133.387 16.8281 134.252 16.1042C135.111 15.3698 135.825 14.2865 136.397 12.8542H136.647L136.168 17.7083L123.168 18.1042V17.9792Z" fill="#333456"/>
<path d="M141.459 17.7392C142.152 17.0308 142.584 16.01 142.751 14.6767L144.168 3.67666C144.345 2.34332 144.189 1.25478 143.689 0.405823L143.709 0.280823L151.001 1.21832C152.668 1.42666 154.152 1.91624 155.459 2.67666C156.777 3.44228 157.777 4.54124 158.459 5.96832C159.137 7.38499 159.34 9.12457 159.064 11.1767C158.798 13.26 158.157 14.9058 157.147 16.1142C156.131 17.3121 154.887 18.1037 153.418 18.51C151.959 18.911 150.397 19.01 148.73 18.8017L141.439 17.8642L141.459 17.7392ZM148.355 18.0725C149.548 18.2235 150.626 18.036 151.584 17.51C152.553 16.9683 153.355 16.1142 153.98 14.9475C154.605 13.7808 155.022 12.3589 155.23 10.6767C155.449 9.00999 155.407 7.54124 155.105 6.25999C154.798 4.96832 154.241 3.94228 153.439 3.17666C152.647 2.41624 151.652 1.95791 150.459 1.80166C149.72 1.70791 148.939 1.73916 148.105 1.90582L146.105 17.4058C146.866 17.7496 147.616 17.9735 148.355 18.0725Z" fill="#333456"/>
<path d="M169.764 23.616C167.639 22.9754 166.123 21.9754 165.222 20.616C164.332 19.2566 164.165 17.6733 164.722 15.866L167.264 7.47015C167.649 6.19411 167.681 5.08474 167.347 4.13682L167.389 4.03265L172.597 5.61599L172.556 5.72015C171.774 6.31911 171.191 7.25661 170.806 8.53265L168.264 16.9285C167.806 18.4181 167.847 19.6733 168.389 20.6993C168.931 21.741 169.873 22.4702 171.222 22.8868C172.582 23.2879 173.774 23.2097 174.806 22.6577C175.832 22.1004 176.576 21.0795 177.035 19.5952L179.576 11.1993C179.743 10.6472 179.785 10.0899 179.701 9.53265C179.618 8.98057 179.441 8.38682 179.181 7.76182L179.222 7.63682L182.556 8.63682L182.514 8.76182C181.941 9.13682 181.472 9.53265 181.097 9.94932C180.722 10.366 180.451 10.8556 180.285 11.4077L177.743 19.8035C177.186 21.6212 176.222 22.866 174.847 23.5327C173.472 24.1993 171.774 24.2254 169.764 23.616Z" fill="#333456"/>
<path d="M188.489 31.0432C186.999 30.3349 185.853 29.3453 185.051 28.0849C184.244 26.8349 183.812 25.4495 183.76 23.9182C183.702 22.3766 184.056 20.8349 184.822 19.2932C185.598 17.6682 186.661 16.3922 188.01 15.4599C189.369 14.5172 190.853 13.9964 192.468 13.8974C194.093 13.788 195.702 14.1214 197.301 14.8974C198.27 15.3714 199.135 15.9182 199.885 16.5432C200.645 17.1682 201.223 17.7412 201.614 18.2516L199.551 22.5224L199.322 22.4182C199.53 20.8662 199.369 19.4182 198.843 18.0849C198.312 16.7516 197.431 15.7828 196.197 15.1682C195.28 14.7255 194.353 14.5849 193.426 14.7516C192.494 14.9182 191.603 15.3766 190.76 16.1266C189.926 16.8662 189.197 17.8766 188.572 19.1682C187.905 20.5432 187.556 21.9078 187.53 23.2516C187.515 24.5849 187.812 25.7932 188.426 26.8766C189.051 27.9599 189.947 28.7776 191.114 29.3349C192.166 29.8453 193.223 30.0276 194.28 29.8766C195.348 29.7359 196.385 29.262 197.385 28.4599L197.593 28.5849C196.926 29.5693 196.098 30.3401 195.114 30.8974C194.124 31.4651 193.062 31.7724 191.926 31.8141C190.786 31.8662 189.64 31.6109 188.489 31.0432Z" fill="#333456"/>
<path d="M197.218 34.9283C198.478 34.8033 199.697 34.3606 200.864 33.595L213.76 24.9908L215.468 26.1783L211.926 41.1783C211.744 41.9388 211.635 42.6002 211.593 43.1575C211.562 43.7252 211.593 44.3294 211.676 44.97L211.614 45.0742L206.447 41.4908L206.51 41.3867C207.187 41.1783 207.728 40.7877 208.135 40.22C208.411 39.8138 208.598 39.3763 208.697 38.9075L209.343 36.2617L203.885 32.47L201.76 33.8867C201.353 34.1367 201.02 34.4492 200.76 34.8242C200.286 35.5013 200.135 36.2513 200.301 37.0742L200.239 37.1783L197.155 35.0325L197.218 34.9283ZM211.489 27.3242L204.426 32.0742L209.51 35.595L211.489 27.3242Z" fill="#333456"/>
<path d="M217.588 50.3965C218.573 50.2142 219.526 49.6465 220.443 48.6882L229.963 38.709L229.276 38.0632C228.328 37.1621 227.276 36.6882 226.109 36.6465C224.943 36.6048 223.651 36.8757 222.234 37.459L222.026 37.2715L226.005 34.084L237.463 45.0215L234.401 49.084L234.213 48.9173C234.74 47.485 234.953 46.1882 234.859 45.0215C234.76 43.8548 234.24 42.8132 233.297 41.8965L232.609 41.2507L223.088 51.2298C222.172 52.1882 221.641 53.1569 221.505 54.1465L221.422 54.2298L217.505 50.4798L217.588 50.3965Z" fill="#333456"/>
<path d="M228.297 61.4585C229.281 61.4013 230.286 60.9481 231.318 60.1044L239.922 53.0835C240.948 52.2502 241.578 51.3648 241.818 50.4169L241.922 50.3335L245.359 54.5419L245.255 54.6252C244.281 54.6825 243.281 55.1252 242.255 55.9585L233.651 62.9794C232.62 63.8231 231.984 64.719 231.734 65.6669L231.63 65.7502L228.193 61.5419L228.297 61.4585Z" fill="#333456"/>
<path d="M239.212 77.2841C238.295 75.7945 237.816 74.2945 237.774 72.7841C237.743 71.2841 238.134 69.857 238.941 68.5133C239.743 67.1695 240.931 66.0133 242.504 65.0549C244.045 64.0966 245.592 63.5653 247.149 63.4508C248.717 63.3258 250.17 63.6278 251.504 64.3466C252.837 65.0549 253.962 66.1539 254.879 67.6383C255.78 69.107 256.254 70.5966 256.295 72.0966C256.337 73.607 255.951 75.0393 255.149 76.3883C254.342 77.7476 253.17 78.9091 251.629 79.8674C250.056 80.8258 248.488 81.357 246.92 81.4716C245.363 81.581 243.91 81.2737 242.566 80.5549C241.233 79.8466 240.113 78.7528 239.212 77.2841ZM239.795 76.9508C240.306 77.7841 241.056 78.3153 242.045 78.5549C243.03 78.8049 244.17 78.7476 245.462 78.3883C246.754 78.0237 248.118 77.3987 249.566 76.5133C250.993 75.6226 252.155 74.6851 253.045 73.7008C253.946 72.7112 254.509 71.7216 254.733 70.7216C254.967 69.732 254.826 68.8258 254.316 67.9924C253.8 67.1487 253.05 66.6122 252.066 66.3883C251.076 66.1539 249.941 66.2112 248.649 66.5549C247.358 66.9039 245.993 67.5237 244.566 68.4091C243.118 69.2945 241.946 70.2424 241.045 71.2424C240.155 72.2424 239.592 73.2268 239.358 74.2008C239.134 75.1851 239.28 76.1018 239.795 76.9508Z" fill="#333456"/>
<path d="M246.088 88.3368C246.739 88.5555 247.338 88.6805 247.88 88.7118C248.432 88.7535 248.984 88.6597 249.526 88.441L259.838 84.2743C260.39 84.0555 260.864 83.7326 261.255 83.316C261.64 82.8993 261.984 82.3941 262.276 81.7951L262.401 81.7535L264.088 85.9618L256.192 99.066L264.463 95.7118C265.005 95.4878 265.463 95.1753 265.838 94.7743C266.224 94.368 266.578 93.868 266.901 93.2743L267.047 93.2326L268.338 96.4618L268.192 96.5035C267.567 96.2951 266.968 96.1753 266.401 96.1493C265.843 96.118 265.297 96.217 264.755 96.441L251.401 101.858L251.047 100.983L260.651 84.7535L249.817 89.1285C249.276 89.3472 248.817 89.6597 248.442 90.066C248.067 90.467 247.718 90.9722 247.401 91.5868L247.276 91.6493L245.963 88.3993L246.088 88.3368Z" fill="#333456"/>
<path d="M32.3436 319.835C30.1769 319.835 28.0728 319.59 26.0311 319.106C23.9998 318.606 22.3957 318.054 21.2186 317.439V307.877H21.6978C22.7498 311.085 24.3071 313.658 26.3644 315.585C28.4321 317.517 30.6978 318.481 33.1561 318.481C35.1144 318.481 36.6665 317.929 37.8228 316.814C38.9738 315.689 39.5519 314.283 39.5519 312.585C39.5519 310.793 38.8696 309.418 37.5103 308.46C36.1457 307.502 34.1665 306.606 31.5728 305.772C29.1821 305.038 27.2394 304.288 25.7394 303.522C24.2498 302.746 23.0519 301.689 22.1353 300.356C21.229 299.012 20.7811 297.246 20.7811 295.064C20.7811 293.179 21.2707 291.47 22.2603 289.939C23.2603 288.397 24.6613 287.189 26.4686 286.314C28.2707 285.429 30.3644 284.981 32.7394 284.981C34.5832 284.981 36.4113 285.189 38.2186 285.606C40.0363 286.022 41.4894 286.491 42.5728 287.002V295.877H42.0936C40.9686 292.908 39.5363 290.574 37.8019 288.877C36.078 287.184 34.0832 286.335 31.8228 286.335C30.0832 286.335 28.6457 286.835 27.5103 287.835C26.3853 288.824 25.8228 290.127 25.8228 291.752C25.8228 293.418 26.5103 294.72 27.8853 295.647C29.2603 296.58 31.4061 297.522 34.3228 298.481C36.5571 299.22 38.3853 299.955 39.8019 300.689C41.229 301.429 42.4269 302.496 43.3853 303.897C44.3436 305.304 44.8228 307.142 44.8228 309.418C44.8228 311.434 44.3228 313.231 43.3228 314.814C42.3332 316.397 40.8957 317.637 39.0103 318.522C37.1353 319.397 34.9113 319.835 32.3436 319.835Z" fill="#333456"/>
<path d="M59.3237 318.96C60.4487 317.46 61.0112 315.449 61.0112 312.918V286.814H59.2195C56.7612 286.814 54.6986 287.543 53.032 289.002C51.3653 290.449 49.9382 292.517 48.7611 295.21H48.282L49.4903 285.606H79.532L80.6778 295.21H80.1987C79.0424 292.517 77.6362 290.449 75.9695 289.002C74.3132 287.543 72.2403 286.814 69.7403 286.814H67.9695V312.918C67.9695 315.449 68.5216 317.46 69.6362 318.96V319.21H59.3237V318.96Z" fill="#333456"/>
<path d="M99.7842 319.835C95.5863 319.835 92.3051 318.845 89.9301 316.856C87.5655 314.871 86.3884 312.085 86.3884 308.502V291.897C86.3884 289.371 85.8311 287.356 84.7217 285.856V285.606H95.0342V285.856C93.9092 287.356 93.3467 289.371 93.3467 291.897V308.502C93.3467 311.449 94.1228 313.71 95.6801 315.293C97.2322 316.877 99.3519 317.668 102.034 317.668C104.727 317.668 106.847 316.877 108.388 315.293C109.94 313.71 110.722 311.449 110.722 308.502V291.897C110.722 290.772 110.498 289.731 110.055 288.772C109.607 287.814 108.972 286.856 108.138 285.897V285.606H114.763V285.897C113.93 286.856 113.289 287.814 112.847 288.772C112.399 289.731 112.18 290.772 112.18 291.897V308.502C112.18 312.127 111.107 314.929 108.972 316.897C106.847 318.856 103.784 319.835 99.7842 319.835Z" fill="#333456"/>
<path d="M132.232 319.835C130.065 319.835 127.961 319.59 125.919 319.106C123.888 318.606 122.284 318.054 121.107 317.439V307.877H121.586C122.638 311.085 124.195 313.658 126.253 315.585C128.32 317.517 130.586 318.481 133.044 318.481C135.003 318.481 136.555 317.929 137.711 316.814C138.862 315.689 139.44 314.283 139.44 312.585C139.44 310.793 138.758 309.418 137.398 308.46C136.034 307.502 134.055 306.606 131.461 305.772C129.07 305.038 127.128 304.288 125.628 303.522C124.138 302.746 122.94 301.689 122.023 300.356C121.117 299.012 120.669 297.246 120.669 295.064C120.669 293.179 121.159 291.47 122.148 289.939C123.148 288.397 124.55 287.189 126.357 286.314C128.159 285.429 130.253 284.981 132.628 284.981C134.471 284.981 136.3 285.189 138.107 285.606C139.925 286.022 141.378 286.491 142.461 287.002V295.877H141.982C140.857 292.908 139.425 290.574 137.69 288.877C135.966 287.184 133.971 286.335 131.711 286.335C129.971 286.335 128.534 286.835 127.398 287.835C126.273 288.824 125.711 290.127 125.711 291.752C125.711 293.418 126.398 294.72 127.773 295.647C129.148 296.58 131.294 297.522 134.211 298.481C136.445 299.22 138.273 299.955 139.69 300.689C141.117 301.429 142.315 302.496 143.273 303.897C144.232 305.304 144.711 307.142 144.711 309.418C144.711 311.434 144.211 313.231 143.211 314.814C142.221 316.397 140.784 317.637 138.898 318.522C137.023 319.397 134.8 319.835 132.232 319.835Z" fill="#333456"/>
<path d="M158.962 318.96C160.087 317.46 160.649 315.449 160.649 312.918V307.106L153.108 292.189C151.826 289.663 150.295 287.554 148.504 285.856V285.606H160.754V285.856C160.139 286.746 159.837 287.72 159.837 288.772C159.837 289.871 160.118 290.976 160.691 292.085L166.754 304.272L172.649 292.522C173.259 291.304 173.566 290.137 173.566 289.022C173.566 287.746 173.196 286.689 172.462 285.856V285.606H179.608V285.856C177.467 287.387 175.774 289.366 174.524 291.793L167.608 305.439V312.918C167.608 315.449 168.17 317.46 169.295 318.96V319.21H158.962V318.96Z" fill="#333456"/>
<path d="M183.36 318.918C184.193 317.96 184.829 317.002 185.277 316.043C185.719 315.085 185.943 314.043 185.943 312.918V291.856C185.943 290.731 185.719 289.689 185.277 288.731C184.829 287.772 184.193 286.814 183.36 285.856V285.606H191.902L209.381 308.835V291.897C209.381 290.772 209.152 289.731 208.693 288.772C208.245 287.814 207.61 286.856 206.777 285.897V285.606H213.402V285.897C212.568 286.856 211.928 287.814 211.485 288.772C211.037 289.731 210.818 290.772 210.818 291.897V319.21H209.027L187.381 290.793V312.918C187.381 314.043 187.6 315.085 188.048 316.043C188.506 317.002 189.152 317.96 189.985 318.918V319.21H183.36V318.918Z" fill="#333456"/>
<path d="M235.05 319.835C231.951 319.835 229.181 319.101 226.738 317.627C224.306 316.158 222.415 314.137 221.071 311.564C219.738 308.981 219.071 306.059 219.071 302.793C219.071 299.377 219.826 296.314 221.342 293.606C222.868 290.897 224.972 288.788 227.654 287.272C230.347 285.746 233.373 284.981 236.738 284.981C238.748 284.981 240.66 285.21 242.467 285.668C244.269 286.116 245.738 286.606 246.863 287.147V296.127H246.384C245.451 293.335 243.977 291.022 241.967 289.189C239.951 287.345 237.644 286.418 235.05 286.418C233.134 286.418 231.446 286.939 229.988 287.981C228.529 289.022 227.389 290.533 226.571 292.502C225.764 294.476 225.363 296.814 225.363 299.522C225.363 302.413 225.904 305.012 226.988 307.314C228.071 309.606 229.576 311.418 231.509 312.752C233.451 314.085 235.66 314.752 238.134 314.752C240.368 314.752 242.326 314.184 244.009 313.043C245.686 311.908 247.035 310.246 248.05 308.064H248.55C248.186 310.314 247.404 312.33 246.196 314.106C244.998 315.871 243.451 317.267 241.55 318.293C239.644 319.319 237.477 319.835 235.05 319.835Z" fill="#333456"/>
</svg>
